<?xml version="1.0" standalone="no"?><svg xmlns="http://www.w3.org/2000/svg" viewBox="0 0 1440 320"><path fill="#f3f4f5" fill-opacity="1" d="M0,128L9.6,138.7C19.2,149,38,171,58,160C76.8,149,96,107,115,101.3C134.4,96,154,128,173,165.3C192,203,211,245,230,266.7C249.6,288,269,288,288,282.7C307.2,277,326,267,346,272C364.8,277,384,299,403,304C422.4,309,442,299,461,293.3C480,288,499,288,518,261.3C537.6,235,557,181,576,160C595.2,139,614,149,634,149.3C652.8,149,672,139,691,138.7C710.4,139,730,149,749,144C768,139,787,117,806,101.3C825.6,85,845,75,864,101.3C883.2,128,902,192,922,186.7C940.8,181,960,107,979,80C998.4,53,1018,75,1037,106.7C1056,139,1075,181,1094,208C1113.6,235,1133,245,1152,213.3C1171.2,181,1190,107,1210,85.3C1228.8,64,1248,96,1267,133.3C1286.4,171,1306,213,1325,218.7C1344,224,1363,192,1382,154.7C1401.6,117,1421,75,1430,53.3L1440,32L1440,320L1430.4,320C1420.8,320,1402,320,1382,320C1363.2,320,1344,320,1325,320C1305.6,320,1286,320,1267,320C1248,320,1229,320,1210,320C1190.4,320,1171,320,1152,320C1132.8,320,1114,320,1094,320C1075.2,320,1056,320,1037,320C1017.6,320,998,320,979,320C960,320,941,320,922,320C902.4,320,883,320,864,320C844.8,320,826,320,806,320C787.2,320,768,320,749,320C729.6,320,710,320,691,320C672,320,653,320,634,320C614.4,320,595,320,576,320C556.8,320,538,320,518,320C499.2,320,480,320,461,320C441.6,320,422,320,403,320C384,320,365,320,346,320C326.4,320,307,320,288,320C268.8,320,250,320,230,320C211.2,320,192,320,173,320C153.6,320,134,320,115,320C96,320,77,320,58,320C38.4,320,19,320,10,320L0,320Z"></path></svg>